<?xml version="1.0" standalone="no"?>
<!DOCTYPE svg PUBLIC "-//W3C//DTD SVG 20010904//EN"
 "http://www.w3.org/TR/2001/REC-SVG-20010904/DTD/svg10.dtd">
<svg version="1.0" xmlns="http://www.w3.org/2000/svg"
 width="16.000000pt" height="16.000000pt" viewBox="0 0 16.000000 16.000000"
 preserveAspectRatio="xMidYMid meet">
<metadata>
Created by potrace 1.11, written by Peter Selinger 2001-2013
</metadata>
<g transform="translate(0.000000,16.000000) scale(0.006154,-0.006154)"
fill="#000000" stroke="none">
<path d="M0 1300 l0 -1300 1300 0 1300 0 0 1300 0 1300 -1300 0 -1300 0 0
-1300z m990 -5 l0 -265 -465 0 -465 0 0 265 0 265 465 0 465 0 0 -265z m738
196 c45 -23 77 -56 92 -96 15 -39 16 -152 1 -196 -13 -41 -64 -93 -104 -108
-78 -30 -178 0 -222 67 -46 70 -44 214 5 283 45 62 156 87 228 50z m371 1 c36
-18 65 -52 76 -89 6 -21 3 -23 -30 -23 -28 0 -44 7 -65 30 -19 20 -38 30 -57
30 -55 0 -94 -50 -60 -78 6 -6 48 -19 92 -31 62 -15 86 -27 108 -51 50 -56 25
-155 -48 -186 -44 -18 -126 -18 -170 0 -37 16 -75 68 -75 104 0 19 5 22 39 22
33 0 40 -4 45 -25 16 -62 156 -57 156 5 0 26 -31 43 -115 65 -79 21 -111 47
-120 98 -15 79 52 147 145 147 25 0 60 -8 79 -18z m-949 -72 l0 -80 75 0 75 0
0 80 0 80 40 0 40 0 0 -205 0 -205 -40 0 -40 0 0 90 0 90 -75 0 -75 0 0 -90 0
-90 -40 0 -40 0 0 205 0 205 40 0 40 0 0 -80z m1400 45 l0 -34 -57 -3 -58 -3
-3 -167 -2 -168 -40 0 -40 0 0 170 0 170 -60 0 -60 0 0 35 0 35 160 0 160 0 0
-35z"/>
<path d="M150 1296 l0 -206 110 0 c73 0 122 5 145 14 66 28 89 133 39 183 -14
14 -22 28 -16 32 17 11 32 49 32 80 0 20 -10 42 -29 63 l-29 33 -126 4 -126 3
0 -206z m211 124 c21 -12 25 -50 7 -68 -7 -7 -39 -12 -75 -12 l-63 0 0 45 0
45 56 0 c30 0 64 -5 75 -10z m10 -160 c13 -7 19 -21 19 -45 0 -44 -20 -55 -99
-55 l-61 0 0 55 0 55 61 0 c33 0 69 -5 80 -10z"/>
<path d="M570 1295 l0 -205 40 0 40 0 0 73 c0 59 4 77 19 91 17 16 21 12 77
-74 l59 -90 54 0 c41 0 51 3 44 13 -43 55 -153 218 -153 226 0 5 34 46 76 90
l76 81 -53 -1 -54 0 -70 -81 -70 -81 -3 82 -3 81 -39 0 -40 0 0 -205z"/>
<path d="M1625 1433 c-101 -25 -112 -233 -15 -273 75 -31 140 30 140 132 0 73
-20 115 -65 134 -19 8 -36 13 -37 13 -2 -1 -12 -3 -23 -6z"/>
</g>
</svg>
